<svg width="220" height="28" viewBox="0 0 220 28" fill="none" xmlns="http://www.w3.org/2000/svg">
<path d="M219.023 21.8477C219.023 22.4727 218.913 23.1432 218.691 23.8594C218.483 24.5755 218.132 25.2396 217.637 25.8516C217.155 26.4635 216.523 26.9779 215.742 27.3945C214.961 27.7982 214.004 28 212.871 28H193.594C193.229 28 192.891 27.9349 192.578 27.8047C192.266 27.6745 191.992 27.4987 191.758 27.2773C191.536 27.043 191.361 26.7695 191.23 26.457C191.1 26.1445 191.035 25.806 191.035 25.4414V2.55078C191.035 2.19922 191.1 1.86719 191.23 1.55469C191.361 1.24219 191.536 0.96875 191.758 0.734375C191.992 0.5 192.266 0.317708 192.578 0.1875C192.891 0.0572917 193.229 -0.0078125 193.594 -0.0078125H210.586C211.211 -0.0078125 211.882 0.102865 212.598 0.324219C213.314 0.545573 213.978 0.903646 214.59 1.39844C215.215 1.88021 215.729 2.51172 216.133 3.29297C216.549 4.07422 216.758 5.03125 216.758 6.16406V7.12109C216.758 8.01953 216.608 8.98958 216.309 10.0312C216.009 11.0599 215.527 12.0365 214.863 12.9609C215.436 13.3125 215.97 13.7357 216.465 14.2305C216.973 14.7253 217.415 15.2982 217.793 15.9492C218.171 16.6003 218.47 17.3359 218.691 18.1562C218.913 18.9766 219.023 19.8815 219.023 20.8711V21.8477ZM213.945 20.8711C213.945 20.207 213.841 19.6146 213.633 19.0938C213.424 18.5599 213.132 18.1042 212.754 17.7266C212.376 17.349 211.921 17.0625 211.387 16.8672C210.853 16.6589 210.254 16.5547 209.59 16.5547H198.145V11.4375H207.305C207.969 11.4375 208.568 11.3398 209.102 11.1445C209.635 10.9362 210.091 10.6432 210.469 10.2656C210.846 9.88802 211.133 9.4388 211.328 8.91797C211.536 8.38411 211.641 7.78516 211.641 7.12109V6.16406C211.641 5.4349 211.289 5.07031 210.586 5.07031H196.113V22.9219H212.871C212.962 22.9219 213.073 22.9154 213.203 22.9023C213.333 22.8893 213.451 22.8503 213.555 22.7852C213.659 22.7201 213.75 22.6094 213.828 22.4531C213.906 22.2969 213.945 22.082 213.945 21.8086V20.8711Z" fill="white" fill-opacity="0.1"/>
<path d="M185.156 28H180.078V21.125H162.227V28H157.148V13.9961C157.148 11.9518 157.5 10.0703 158.203 8.35156C158.906 6.63281 159.883 5.15495 161.133 3.91797C162.383 2.68099 163.861 1.71745 165.566 1.02734C167.272 0.33724 169.134 -0.0078125 171.152 -0.0078125H182.598C182.949 -0.0078125 183.281 0.0572917 183.594 0.1875C183.906 0.317708 184.18 0.5 184.414 0.734375C184.648 0.96875 184.831 1.24219 184.961 1.55469C185.091 1.86719 185.156 2.19922 185.156 2.55078V28ZM162.227 16.0469H180.078V5.07031H171.152C170.996 5.07031 170.664 5.09635 170.156 5.14844C169.661 5.1875 169.082 5.29818 168.418 5.48047C167.767 5.66276 167.077 5.94271 166.348 6.32031C165.618 6.69792 164.948 7.21875 164.336 7.88281C163.724 8.54688 163.216 9.38021 162.812 10.3828C162.422 11.3724 162.227 12.5768 162.227 13.9961V16.0469Z" fill="white" fill-opacity="0.1"/>
<path d="M153.945 28H130.781C130.417 28 130.078 27.9349 129.766 27.8047C129.453 27.6745 129.18 27.4987 128.945 27.2773C128.724 27.043 128.548 26.7695 128.418 26.457C128.288 26.1445 128.223 25.806 128.223 25.4414V-0.0078125H133.301V22.9219H153.945V28Z" fill="white" fill-opacity="0.1"/>
<path d="M123.652 9.36719C123.652 10.526 123.503 11.5612 123.203 12.4727C122.917 13.3841 122.533 14.1914 122.051 14.8945C121.569 15.5846 121.003 16.1771 120.352 16.6719C119.714 17.1667 119.049 17.5768 118.359 17.9023C117.669 18.2148 116.966 18.4427 116.25 18.5859C115.547 18.7292 114.883 18.8008 114.258 18.8008H112.207V28H107.09V18.8008H105.059C104.434 18.8008 103.763 18.7292 103.047 18.5859C102.344 18.4427 101.641 18.2148 100.938 17.9023C100.247 17.5768 99.5833 17.1667 98.9453 16.6719C98.3073 16.1771 97.7409 15.5846 97.2461 14.8945C96.7643 14.1914 96.3737 13.3841 96.0742 12.4727C95.7878 11.5482 95.6445 10.513 95.6445 9.36719V-0.0078125H100.723V9.36719C100.723 10.0312 100.827 10.6302 101.035 11.1641C101.243 11.6849 101.536 12.1341 101.914 12.5117C102.292 12.8893 102.747 13.1823 103.281 13.3906C103.828 13.5859 104.434 13.6836 105.098 13.6836H114.258C114.74 13.6055 115.234 13.5078 115.742 13.3906C116.25 13.2604 116.712 13.0456 117.129 12.7461C117.546 12.4466 117.891 12.0299 118.164 11.4961C118.438 10.9622 118.574 10.2526 118.574 9.36719V-0.0078125H123.652V9.36719Z" fill="white" fill-opacity="0.1"/>
<path d="M92.4023 9.36719C92.4023 10.526 92.2526 11.5612 91.9531 12.4727C91.6667 13.3841 91.2826 14.1914 90.8008 14.8945C90.319 15.5846 89.7526 16.1771 89.1016 16.6719C88.4635 17.1667 87.7995 17.5768 87.1094 17.9023C86.4193 18.2148 85.7161 18.4427 85 18.5859C84.2969 18.7292 83.6328 18.8008 83.0078 18.8008H80.957V28H75.8398V18.8008H73.8086C73.1836 18.8008 72.513 18.7292 71.7969 18.5859C71.0938 18.4427 70.3906 18.2148 69.6875 17.9023C68.9974 17.5768 68.3333 17.1667 67.6953 16.6719C67.0573 16.1771 66.4909 15.5846 65.9961 14.8945C65.5143 14.1914 65.1237 13.3841 64.8242 12.4727C64.5378 11.5482 64.3945 10.513 64.3945 9.36719V-0.0078125H69.4727V9.36719C69.4727 10.0312 69.5768 10.6302 69.7852 11.1641C69.9935 11.6849 70.2865 12.1341 70.6641 12.5117C71.0417 12.8893 71.4974 13.1823 72.0312 13.3906C72.5781 13.5859 73.1836 13.6836 73.8477 13.6836H83.0078C83.4896 13.6055 83.9844 13.5078 84.4922 13.3906C85 13.2604 85.4622 13.0456 85.8789 12.7461C86.2956 12.4466 86.6406 12.0299 86.9141 11.4961C87.1875 10.9622 87.3242 10.2526 87.3242 9.36719V-0.0078125H92.4023V9.36719Z" fill="white" fill-opacity="0.1"/>
<path d="M59.8047 28H54.7266V21.125H36.875V28H31.7969V13.9961C31.7969 11.9518 32.1484 10.0703 32.8516 8.35156C33.5547 6.63281 34.5312 5.15495 35.7812 3.91797C37.0312 2.68099 38.5091 1.71745 40.2148 1.02734C41.9206 0.33724 43.7826 -0.0078125 45.8008 -0.0078125H57.2461C57.5977 -0.0078125 57.9297 0.0572917 58.2422 0.1875C58.5547 0.317708 58.8281 0.5 59.0625 0.734375C59.2969 0.96875 59.4792 1.24219 59.6094 1.55469C59.7396 1.86719 59.8047 2.19922 59.8047 2.55078V28ZM36.875 16.0469H54.7266V5.07031H45.8008C45.6445 5.07031 45.3125 5.09635 44.8047 5.14844C44.3099 5.1875 43.7305 5.29818 43.0664 5.48047C42.4154 5.66276 41.7253 5.94271 40.9961 6.32031C40.2669 6.69792 39.5964 7.21875 38.9844 7.88281C38.3724 8.54688 37.8646 9.38021 37.4609 10.3828C37.0703 11.3724 36.875 12.5768 36.875 13.9961V16.0469Z" fill="white" fill-opacity="0.1"/>
<path d="M26.5039 20.8711C26.5039 21.8867 26.3281 22.8307 25.9766 23.7031C25.625 24.5755 25.1302 25.3307 24.4922 25.9688C23.8672 26.6068 23.1185 27.1081 22.2461 27.4727C21.3737 27.8242 20.4232 28 19.3945 28H0.78125V22.9219H19.3945C20.0195 22.9219 20.5078 22.7461 20.8594 22.3945C21.2109 22.0299 21.3867 21.5221 21.3867 20.8711V-0.0078125H26.5039V20.8711Z" fill="white" fill-opacity="0.1"/>
</svg>
